# xmcd CD database file
# Generated: Sat Sep 29 09:26:55 2001 by WSPse's MP3c
#
# Track frame offsets:
#       183
#       18765
#       33045
#       54788
#       68875
#       86715
#       96573
#       115263
#       131360
#       143895
#       156813
#       175153
#       193070
#       205760
#       220068
#       232948
#       248463
#       264573
#       276990
#       295338
#
# Disc length: 4247 seconds
#
# Revision: 0
# Processed by: cddbd v1.4PL0 Copyright (c) Steve Scherf et al.
# Submitted via: MP3c 0.27
#   WSPse mp3c-0.27 (NLS) - ENGLISH (Aug 11 2001)
#
DISCID=17109514
DTITLE=George Melly with John Chilton's Feetwarmers - A Golden Hour of George Me
DTITLE=lly
DYEAR=1900
DGENRE=
TTITLE0=Running Wild
TTITLE1=I'm Gonna Sit Right Down And Write Myself A Letter
TTITLE2=Backwater Blues
TTITLE3=Taint Watcha Do (It's The Way That You Do It)
TTITLE4=Michegan Water Blues
TTITLE5=Watch The Birdie
TTITLE6=Don't Get Around Much Anymore
TTITLE7=Your Feets Too Big
TTITLE8=Was I Drunk
TTITLE9=The Joint Is Jumpin'
TTITLE10=Let's Do It (Let's Fall In Love)
TTITLE11=You're Driving me Crazy
TTITLE12=Masculine Women, Feminine Men
TTITLE13=St. Louis Blues
TTITLE14=Wait Till You See My Baby Do The Charleston
TTITLE15=I Want My Fanny Brown
TTITLE16=Empty Bed Blues
TTITLE17=Goody Goody
TTITLE18=I Can't Give You Anything But Love
TTITLE19=My Momma Rocks Me
EXTD=
EXTT0=
EXTT1=
EXTT2=
EXTT3=
EXTT4=
EXTT5=
EXTT6=
EXTT7=
EXTT8=
EXTT9=
EXTT10=
EXTT11=
EXTT12=
EXTT13=
EXTT14=
EXTT15=
EXTT16=
EXTT17=
EXTT18=
EXTT19=
PLAYORDER=
